PathFileType	4	(X/Y/Z)	/Users/itak/Documents/Research/Walk-IL/dataset/trc/00548_00009.trc
DataRate	CameraRate	NumFrames	NumMarkers	Units	OrigDataRate	OrigDataStartFrame	OrigNumFrames
100.000000	100.000000	4	53	mm	100.000000	228	457
Frame#	Time	RPSI			LPSI			L3			STRN			T10			C7			CLAV			RBAK			LBAK			LSHO			LUPA			LAEL			LAOL			LWTS			LWPS			LFRA			LHPS			LHTS			RSHO			RUPA			RAEL			RAOL			RWTS			RWPS			RFRA			RIFD			RHTS			RHPS			RBHD			LFHD			RFHD			LBHD			LHIP			RHIP			RASI			LASI			LKNE			LTHI			LANK			LTIP			LTOE			LMT1			LMT5			LHEE			RKNE			RTHI			RANK			RTIP			RTOE			RMT1			RMT5			RHEE			LIFD			
		X1	Y1	Z1	X2	Y2	Z2	X3	Y3	Z3	X4	Y4	Z4	X5	Y5	Z5	X6	Y6	Z6	X7	Y7	Z7	X8	Y8	Z8	X9	Y9	Z9	X10	Y10	Z10	X11	Y11	Z11	X12	Y12	Z12	X13	Y13	Z13	X14	Y14	Z14	X15	Y15	Z15	X16	Y16	Z16	X17	Y17	Z17	X18	Y18	Z18	X19	Y19	Z19	X20	Y20	Z20	X21	Y21	Z21	X22	Y22	Z22	X23	Y23	Z23	X24	Y24	Z24	X25	Y25	Z25	X26	Y26	Z26	X27	Y27	Z27	X28	Y28	Z28	X29	Y29	Z29	X30	Y30	Z30	X31	Y31	Z31	X32	Y32	Z32	X33	Y33	Z33	X34	Y34	Z34	X35	Y35	Z35	X36	Y36	Z36	X37	Y37	Z37	X38	Y38	Z38	X39	Y39	Z39	X40	Y40	Z40	X41	Y41	Z41	X42	Y42	Z42	X43	Y43	Z43	X44	Y44	Z44	X45	Y45	Z45	X46	Y46	Z46	X47	Y47	Z47	X48	Y48	Z48	X49	Y49	Z49	X50	Y50	Z50	X51	Y51	Z51	X52	Y52	Z52	X53	Y53	Z53	

229	2.28	-105.8797073364258	983.6663208007812	300.7696533203125	-104.8817367553711	983.9552001953125	167.4904327392578	-99.44705963134766	1081.796630859375	235.6252746582031	143.7247467041016	1261.261840820312	230.6093139648438	-101.889030456543	1207.072265625	236.8894805908203	-40.92443084716797	1478.509521484375	251.8382873535156	128.7327880859375	1372.58154296875	231.6890869140625	-112.9508895874023	1355.864868164062	339.5169067382812	-82.58034515380859	1428.820190429688	162.1363372802734	12.23342704772949	1451.026245117188	76.39557647705078	-12.0284948348999	1325.170288085938	-2.172238111495972	-17.12536239624023	1103.250244140625	-26.18502807617188	-92.84325408935547	1100.690185546875	41.11965179443359	64.51865386962891	853.1744384765625	-4.236808776855469	3.407256603240967	836.6142578125	-64.83356475830078	-3.383363008499146	1016.225708007812	-38.88788604736328	7.723426818847656	776.0239868164062	-59.10211181640625	68.10809326171875	774.9718627929688	-27.04939842224121	24.85451316833496	1437.330444335938	403.0726928710938	5.880855083465576	1373.763427734375	471.1889953613281	-4.633294582366943	1085.408325195312	519.1004638671875	-62.25690460205078	1069.731689453125	494.9537048339844	119.9184112548828	860.3071899414062	477.8687438964844	79.37583923339844	842.912353515625	546.12060546875	4.697803020477295	1030.407348632812	527.606201171875	127.188102722168	686.3899536132812	487.6618347167969	145.7811584472656	768.3069458007812	491.9715576171875	92.82321166992188	768.1085815429688	543.7684936523438	40.72834777832031	1650.889038085938	315.5755920410156	195.251220703125	1680.58837890625	179.4849700927734	180.0362091064453	1674.082275390625	322.8654479980469	65.80909729003906	1656.942504882812	152.3638763427734	34.87337112426758	916.4567260742188	45.01370239257812	5.81412410736084	909.9000244140625	428.7720947265625	99.93387603759766	935.3070678710938	377.03271484375	108.4283218383789	944.1630859375	101.4005432128906	224.0319519042969	512.3746948242188	112.0288848876953	159.6349639892578	663.5642700195312	69.86392211914062	239.5266876220703	31.2701358795166	122.0583343505859	221.4333648681641	253.6537780761719	109.1756134033203	446.2288513183594	51.55789184570312	186.3368835449219	372.6900939941406	50.05387115478516	218.8859252929688	361.1856079101562	37.23530578613281	113.4175415039062	169.1417999267578	36.76931762695312	173.4671173095703	-77.84403991699219	479.3428649902344	372.6506958007812	17.65778732299805	753.1101684570312	418.5582885742188	-377.4449157714844	93.64276123046875	341.9671325683594	-145.3723297119141	346.9245300292969	356.9183044433594	-176.6835021972656	38.00841522216797	296.0605163574219	-232.1788787841797	53.03877258300781	257.7624206542969	-259.0597229003906	39.52291488647461	358.4651489257812	-427.7157287597656	120.507080078125	286.4963989257812	43.998779296875	683.468994140625	-11.62100410461426	
230	2.29	-95.01570129394531	984.6088256835938	299.5444641113281	-94.229248046875	985.3084716796875	166.3383331298828	-88.43181610107422	1082.86767578125	234.5285491943359	153.8747711181641	1262.937133789062	229.3415679931641	-91.75429534912109	1208.157958984375	235.9211578369141	-31.38719749450684	1479.746704101562	250.1992645263672	138.5706939697266	1374.21630859375	230.3545379638672	-103.0403289794922	1357.035522460938	338.0532836914062	-72.76319885253906	1429.880249023438	160.4746704101562	22.10402297973633	1452.280639648438	74.85169982910156	-1.373930215835571	1326.379760742188	-3.789350986480713	-4.905221462249756	1104.34912109375	-27.83408737182617	-81.05447387695312	1101.387084960938	38.99285125732422	78.27725219726562	854.87451171875	-5.182788848876953	17.93468475341797	837.987060546875	-66.39071655273438	9.606355667114258	1017.476379394531	-40.44658660888672	22.57683944702148	777.4536743164062	-60.66894912719727	82.66001892089844	776.7200317382812	-27.99374961853027	34.48702621459961	1438.991455078125	401.5651550292969	15.4195499420166	1375.5478515625	469.7056579589844	3.16491174697876	1087.300903320312	517.6776733398438	-54.49949264526367	1071.924682617188	493.2978515625	126.9715576171875	861.5818481445312	477.10400390625	85.77251434326172	844.3517456054688	545.17822265625	12.23801422119141	1032.272705078125	526.2190551757812	133.1635894775391	687.57275390625	487.0328369140625	152.1703796386719	769.405029296875	491.4734802246094	98.82984161376953	769.4721069335938	542.8858642578125	50.15574645996094	1652.447021484375	313.8841857910156	204.5765380859375	1682.0966796875	177.6872711181641	189.4662628173828	1675.72216796875	321.0955200195312	75.07302856445312	1658.337280273438	150.66015625	45.44012069702148	918.233154296875	43.46496200561523	17.0307674407959	910.5662841796875	427.1401062011719	110.7734756469727	936.3529663085938	375.1787414550781	119.1198959350586	946.1218872070312	99.65986633300781	232.7341003417969	512.99072265625	111.6664276123047	169.2906036376953	664.7805786132812	69.62348937988281	239.8975067138672	31.50218772888184	122.0473785400391	226.0994110107422	253.8926544189453	109.0976028442383	447.2605285644531	48.84043884277344	186.7859802246094	373.3705749511719	48.87025833129883	219.2857818603516	361.8060913085938	36.89566802978516	113.1468353271484	169.6112518310547	37.14781951904297	173.3804321289062	-64.22477722167969	479.4839477539062	373.3661193847656	29.58551979064941	753.9267578125	417.0612487792969	-373.2488708496094	100.0083770751953	343.0549621582031	-134.3366088867188	348.1483459472656	358.2945861816406	-176.4490356445312	37.99216461181641	296.0745544433594	-230.6086883544922	54.30077362060547	258.0570678710938	-257.3939514160156	40.53145599365234	358.6690673828125	-422.0023498535156	129.4043273925781	287.3849487304688	58.83592987060547	685.0156860351562	-12.90952587127686	
231	2.3	-84.31535339355469	985.6144409179688	298.2532653808594	-83.59793853759766	986.6802978515625	165.1022033691406	-77.47601318359375	1084.03076171875	233.2498016357422	163.9902801513672	1264.691528320312	228.0562438964844	-81.72361755371094	1209.324951171875	234.8159942626953	-21.8875675201416	1481.057861328125	248.5837707519531	148.3763580322266	1375.946044921875	229.0123748779297	-93.16780853271484	1358.278442382812	336.6208801269531	-62.98002624511719	1430.997680664062	158.8579254150391	31.89301109313965	1453.650390625	73.33200073242188	9.216968536376953	1327.729248046875	-5.404590606689453	7.364985942840576	1105.585571289062	-29.50658226013184	-69.24123382568359	1102.17236328125	36.82627868652344	92.26580810546875	856.8001708984375	-6.111527442932129	32.71680450439453	839.5277709960938	-67.92684173583984	22.70674705505371	1018.876281738281	-42.01222229003906	37.7462043762207	779.0621948242188	-62.21925735473633	97.50350952148438	778.6979370117188	-28.90767288208008	44.08886337280273	1440.711303710938	400.0546569824219	24.97777938842773	1377.401733398438	468.2304992675781	11.07436561584473	1089.31689453125	516.4077758789062	-46.68156433105469	1074.239990234375	491.9169616699219	134.119873046875	863.0263671875	476.12646484375	92.33403015136719	845.9032592773438	544.1765747070312	19.8915843963623	1034.241088867188	524.959228515625	139.2518005371094	688.9108276367188	486.15966796875	158.6368255615234	770.6625366210938	490.75146484375	105.0340347290039	770.9544067382812	541.88720703125	59.56479644775391	1654.118530273438	312.2346801757812	213.8763885498047	1683.668090820312	175.9287261962891	198.8761138916016	1677.426391601562	319.363525390625	84.31031036376953	1659.834350585938	148.9951171875	55.9975700378418	919.8826904296875	41.83169555664062	28.07223510742188	911.3643188476562	425.4814147949219	121.4829940795898	937.5421142578125	373.3132629394531	129.7622375488281	947.9296875	97.89993286132812	240.7395477294922	513.2394409179688	111.303840637207	178.3040008544922	665.5402221679688	69.06460571289062	240.1795196533203	31.75793647766113	122.1100158691406	230.3001708984375	254.0127105712891	109.1029510498047	448.041748046875	46.70051574707031	187.3412780761719	373.879150390625	47.99017333984375	219.8282623291016	362.2707824707031	36.82680511474609	113.0623397827148	169.9845428466797	37.3975830078125	173.3555908203125	-49.85494232177734	479.5138244628906	374.4171447753906	41.55223083496094	754.909912109375	415.7048645019531	-368.3975219726562	106.8733596801758	344.162109375	-122.5254440307617	349.3705139160156	359.9610290527344	-176.1497650146484	37.92854309082031	296.1146240234375	-228.9004821777344	55.64762496948242	258.3943786621094	-255.4927673339844	41.84987640380859	358.9529113769531	-415.3631896972656	138.8450317382812	288.2707824707031	74.10275268554688	686.7728271484375	-14.17537879943848	
232	2.31	-73.82697296142578	986.6723022460938	296.8997192382812	-73.02556610107422	988.0880126953125	163.7784881591797	-66.64290618896484	1085.260986328125	231.7840881347656	174.0508728027344	1266.493041992188	226.7682647705078	-71.78678131103516	1210.546875	233.5679779052734	-12.43729019165039	1482.421752929688	246.9828033447266	158.1317291259766	1377.742309570312	227.67724609375	-83.36724090576172	1359.56494140625	335.1894836425781	-53.24313735961914	1432.158935546875	157.2749786376953	41.60298538208008	1455.110229492188	71.83884429931641	19.74135398864746	1329.191650390625	-7.017318725585938	19.67112922668457	1106.94287109375	-31.20354461669922	-57.41361236572266	1103.02734375	34.62054443359375	106.4758605957031	858.9395141601562	-7.026373863220215	47.73251342773438	841.2173461914062	-69.43310546875	35.89555740356445	1020.407531738281	-43.58137512207031	53.2165641784668	780.8287963867188	-63.74026107788086	112.6235885620117	780.8963012695312	-29.78739738464355	53.61830902099609	1442.466430664062	398.5408325195312	34.49703979492188	1379.29833984375	466.7605895996094	19.11388969421387	1091.43017578125	515.2977905273438	-38.79190826416016	1076.647094726562	490.8355712890625	141.3393859863281	864.6029663085938	474.9273376464844	99.11301422119141	847.5496826171875	543.1114501953125	27.68288612365723	1036.290405273438	523.8349609375	145.4339447021484	690.375244140625	485.0311889648438	165.1840972900391	772.0460205078125	489.7651672363281	111.4746627807617	772.5375366210938	540.7708740234375	68.94051361083984	1655.874145507812	310.6322021484375	223.1409759521484	1685.287109375	174.2236785888672	208.2557067871094	1679.178466796875	317.6754150390625	93.52023315429688	1661.41455078125	147.3731231689453	66.51894378662109	921.4334106445312	40.11908340454102	38.86321640014648	912.2699584960938	423.8129272460938	132.0133819580078	938.8460083007812	371.4754638671875	140.3163299560547	949.5775756835938	96.15408325195312	248.0357208251953	513.1744995117188	110.9222412109375	186.6852569580078	665.9000244140625	68.23770141601562	240.3785705566406	32.00136184692383	122.2193069458008	234.0133972167969	254.0252075195312	109.1553649902344	448.5963439941406	45.09206771850586	187.9330444335938	374.2504272460938	47.35308074951172	220.4243774414062	362.6024780273438	36.92195892333984	113.1188812255859	170.2596130371094	37.55092239379883	173.3797912597656	-34.76692962646484	479.4191589355469	375.759765625	53.54202270507812	756.0263671875	414.4790954589844	-362.8028564453125	114.2666778564453	345.3134155273438	-109.9313354492188	350.5556030273438	361.8504028320312	-175.6833801269531	37.77789306640625	296.1977844238281	-226.9980010986328	57.14229202270508	258.7886047363281	-253.2831268310547	43.58309936523438	359.3388671875	-407.7447204589844	148.8024139404297	289.2297973632812	89.80824279785156	688.7376098632812	-15.4017219543457	
